<?xml version="1.0" encoding="UTF-8"?>
<svg id="Ebene_2" data-name="Ebene 2" xmlns="http://www.w3.org/2000/svg" viewBox="0 0 204.59 54.22">
  <defs>
    <style>
      .cls-1 {
        fill: #1d1d1b;
        stroke: #f6f6f6;
        stroke-miterlimit: 10;
      }
    </style>
  </defs>
  <g id="Ebene_1-2" data-name="Ebene 1">
    <path class="cls-1" d="m204.08,27.29c0-.14.01-.27,0-.41-.04-.49-.22-.97-.56-1.37h0c-.17-.21-.38-.37-.6-.5L174.39,1.07c-1.03-.87-2.58-.73-3.44.3h0c-.87,1.04-.73,2.58.3,3.44l23.68,19.87H2.95c-1.35,0-2.45,1.09-2.45,2.45h0c0,1.35,1.09,2.45,2.45,2.45h191.93l-23.63,19.82c-1.03.87-1.17,2.41-.3,3.44h0c.87,1.04,2.41,1.17,3.44.3l28.51-23.92c.23-.14.44-.3.62-.52h0c.35-.42.53-.91.56-1.41,0,0,0,0,0,0Z"/>
  </g>
</svg>